ply
format ascii 1.0
comment Created by Blender 2.82 (sub 7) - www.blender.org, source file: 'slab_modded.blend'
element vertex 56
property float x
property float y
property float z
property float nx
property float ny
property float nz
property float s
property float t
element face 32
property list uchar uint vertex_indices
end_header
-0.100000 -0.100000 0.500000 -1.000000 0.000000 0.000000 0.625000 0.000000
-0.100000 1.080000 -0.000000 -1.000000 0.000000 0.000000 0.375000 0.250000
-0.100000 -0.100000 -0.000000 -1.000000 0.000000 0.000000 0.375000 0.000000
-0.100000 1.080000 0.500000 0.000000 1.000000 -0.000000 0.625000 0.250000
1.060000 1.080000 -0.000000 0.000000 1.000000 -0.000000 0.375000 0.500000
-0.100000 1.080000 -0.000000 0.000000 1.000000 -0.000000 0.375000 0.250000
1.060000 1.080000 0.500000 1.000000 0.000000 -0.000000 0.625000 0.500000
1.060000 -0.100000 -0.000000 1.000000 0.000000 -0.000000 0.375000 0.750000
1.060000 1.080000 -0.000000 1.000000 0.000000 -0.000000 0.375000 0.500000
1.060000 -0.100000 0.500000 0.000000 -1.000000 0.000000 0.625000 0.750000
-0.100000 -0.100000 -0.000000 0.000000 -1.000000 0.000000 0.375000 1.000000
1.060000 -0.100000 -0.000000 0.000000 -1.000000 0.000000 0.375000 0.750000
1.060000 1.080000 -0.000000 0.000000 0.000000 -1.000000 0.375000 0.500000
0.944000 0.018000 -0.000000 0.000000 0.000000 -1.000000 0.350000 0.725000
0.944000 0.962000 -0.000000 0.000000 0.000000 -1.000000 0.350000 0.525000
0.944000 0.018000 0.500000 0.000000 -0.000001 1.000000 0.650000 0.725000
-0.100000 -0.100000 0.500000 0.000000 -0.000001 1.000000 0.875000 0.750000
1.060000 -0.100000 0.500000 0.000000 -0.000001 1.000000 0.625000 0.750000
0.944000 0.018000 0.500000 -1.000000 0.000000 0.000000 0.589286 0.750000
0.944000 0.962000 -0.000000 -1.000000 0.000000 0.000000 0.410714 0.500000
0.944000 0.018000 -0.000000 -1.000000 0.000000 0.000000 0.410714 0.750000
0.944000 0.962000 0.500000 0.000000 -1.000000 0.000000 0.589286 0.500000
0.016000 0.962000 -0.000000 0.000000 -1.000000 0.000000 0.410714 0.250000
0.944000 0.962000 -0.000000 0.000000 -1.000000 0.000000 0.410714 0.500000
0.016000 0.962000 0.500000 -0.000000 0.000001 1.000000 0.850000 0.525000
1.060000 1.080000 0.500000 -0.000000 0.000001 1.000000 0.625000 0.500000
-0.100000 1.080000 0.500000 -0.000000 0.000001 1.000000 0.875000 0.500000
0.016000 0.962000 0.500000 1.000000 0.000000 -0.000000 0.589286 0.250000
0.016000 0.018000 -0.000000 1.000000 0.000000 -0.000000 0.410714 0.000000
0.016000 0.962000 -0.000000 1.000000 0.000000 -0.000000 0.410714 0.250000
0.016000 0.018000 0.500000 0.000000 1.000000 -0.000000 0.589286 1.000000
0.944000 0.018000 -0.000000 0.000000 1.000000 -0.000000 0.410714 0.750000
0.016000 0.018000 -0.000000 0.000000 1.000000 -0.000000 0.410714 1.000000
0.016000 0.018000 -0.000000 0.000000 0.000000 -1.000000 0.150000 0.725000
1.060000 -0.100000 -0.000000 0.000000 0.000000 -1.000000 0.375000 0.750000
-0.100000 -0.100000 -0.000000 0.000000 0.000000 -1.000000 0.125000 0.750000
-0.100000 1.080000 0.500000 -1.000000 0.000000 0.000000 0.625000 0.250000
1.060000 1.080000 0.500000 0.000000 1.000000 -0.000000 0.625000 0.500000
1.060000 -0.100000 0.500000 1.000000 0.000000 0.000000 0.625000 0.750000
-0.100000 -0.100000 0.500000 0.000000 -1.000000 0.000000 0.625000 1.000000
0.016000 0.962000 -0.000000 -0.000000 -0.000000 -1.000000 0.150000 0.525000
-0.100000 1.080000 -0.000000 -0.000000 -0.000000 -1.000000 0.125000 0.500000
1.060000 -0.100000 0.500000 0.000001 0.000000 1.000000 0.625000 0.750000
1.060000 1.080000 0.500000 0.000001 0.000000 1.000000 0.625000 0.500000
0.944000 0.962000 0.500000 0.000001 0.000000 1.000000 0.650000 0.525000
0.016000 0.018000 0.500000 0.000000 -0.000001 1.000000 0.850000 0.725000
0.944000 0.018000 0.500000 0.000001 -0.000000 1.000000 0.650000 0.725000
0.944000 0.962000 0.500000 -1.000000 0.000000 0.000000 0.589286 0.500000
0.016000 0.962000 0.500000 0.000000 -1.000000 0.000000 0.589286 0.250000
-0.100000 1.080000 0.500000 -0.000001 0.000000 1.000000 0.875000 0.500000
-0.100000 -0.100000 0.500000 -0.000001 0.000000 1.000000 0.875000 0.750000
0.016000 0.018000 0.500000 -0.000001 0.000000 1.000000 0.850000 0.725000
0.944000 0.962000 0.500000 0.000000 0.000001 1.000000 0.650000 0.525000
0.016000 0.962000 0.500000 -0.000001 0.000000 1.000000 0.850000 0.525000
0.016000 0.018000 0.500000 1.000000 0.000000 0.000000 0.589286 0.000000
0.944000 0.018000 0.500000 0.000000 1.000000 -0.000000 0.589286 0.750000
3 0 1 2
3 3 4 5
3 6 7 8
3 9 10 11
3 12 13 14
3 15 16 17
3 18 19 20
3 21 22 23
3 24 25 26
3 27 28 29
3 30 31 32
3 33 34 35
3 0 36 1
3 3 37 4
3 6 38 7
3 9 39 10
3 40 41 14
3 41 12 14
3 12 34 13
3 42 43 44
3 15 45 16
3 42 44 46
3 18 47 19
3 21 48 22
3 49 50 51
3 24 52 25
3 49 51 53
3 27 54 28
3 30 55 31
3 41 40 35
3 40 33 35
3 33 13 34
