ply
format ascii 1.0
comment Created by Blender 2.82 (sub 7) - www.blender.org, source file: 'slab_modded.blend'
element vertex 48
property float x
property float y
property float z
property float nx
property float ny
property float nz
property float s
property float t
element face 12
property list uchar uint vertex_indices
end_header
-0.100000 -0.100000 -0.000000 -1.000000 -0.000000 0.000000 0.375000 0.000000
-0.100000 -0.100000 0.500000 -1.000000 -0.000000 0.000000 0.625000 0.000000
-0.100000 1.080000 0.500000 -1.000000 -0.000000 0.000000 0.625000 0.250000
-0.100000 1.080000 -0.000000 -1.000000 -0.000000 0.000000 0.375000 0.250000
-0.100000 1.080000 -0.000000 0.000000 1.000000 0.000000 0.375000 0.250000
-0.100000 1.080000 0.500000 0.000000 1.000000 0.000000 0.625000 0.250000
1.060000 1.080000 0.500000 0.000000 1.000000 0.000000 0.625000 0.500000
1.060000 1.080000 -0.000000 0.000000 1.000000 0.000000 0.375000 0.500000
1.060000 1.080000 -0.000000 1.000000 -0.000000 0.000000 0.375000 0.500000
1.060000 1.080000 0.500000 1.000000 -0.000000 0.000000 0.625000 0.500000
1.060000 -0.100000 0.500000 1.000000 -0.000000 0.000000 0.625000 0.750000
1.060000 -0.100000 -0.000000 1.000000 -0.000000 0.000000 0.375000 0.750000
1.060000 -0.100000 -0.000000 0.000000 -1.000000 0.000000 0.375000 0.750000
1.060000 -0.100000 0.500000 0.000000 -1.000000 0.000000 0.625000 0.750000
-0.100000 -0.100000 0.500000 0.000000 -1.000000 0.000000 0.625000 1.000000
-0.100000 -0.100000 -0.000000 0.000000 -1.000000 0.000000 0.375000 1.000000
-0.100000 1.080000 -0.000000 0.000000 0.000000 -1.000000 0.125000 0.500000
1.060000 1.080000 -0.000000 0.000000 0.000000 -1.000000 0.375000 0.500000
1.060000 -0.100000 -0.000000 0.000000 0.000000 -1.000000 0.375000 0.750000
0.944000 0.018000 -0.000000 0.000000 0.000000 -1.000000 0.350000 0.725000
0.944000 0.962000 -0.000000 0.000000 0.000000 -1.000000 0.350000 0.525000
0.016000 0.962000 -0.000000 0.000000 0.000000 -1.000000 0.150000 0.525000
1.060000 1.080000 0.500000 0.000000 -0.000000 1.000000 0.625000 0.500000
0.944000 0.962000 0.500000 0.000000 -0.000000 1.000000 0.650000 0.525000
0.944000 0.018000 0.500000 0.000000 -0.000000 1.000000 0.650000 0.725000
0.016000 0.018000 0.500000 0.000000 -0.000000 1.000000 0.850000 0.725000
-0.100000 -0.100000 0.500000 0.000000 -0.000000 1.000000 0.875000 0.750000
1.060000 -0.100000 0.500000 0.000000 -0.000000 1.000000 0.625000 0.750000
0.944000 0.018000 -0.000000 -1.000000 -0.000000 0.000000 0.410714 0.750000
0.944000 0.018000 0.500000 -1.000000 -0.000000 0.000000 0.589286 0.750000
0.944000 0.962000 0.500000 -1.000000 -0.000000 0.000000 0.589286 0.500000
0.944000 0.962000 -0.000000 -1.000000 -0.000000 0.000000 0.410714 0.500000
0.944000 0.962000 -0.000000 0.000000 -1.000000 0.000000 0.410714 0.500000
0.944000 0.962000 0.500000 0.000000 -1.000000 0.000000 0.589286 0.500000
0.016000 0.962000 0.500000 0.000000 -1.000000 0.000000 0.589286 0.250000
0.016000 0.962000 -0.000000 0.000000 -1.000000 0.000000 0.410714 0.250000
0.016000 0.962000 0.500000 -0.000000 0.000000 1.000000 0.850000 0.525000
-0.100000 1.080000 0.500000 -0.000000 0.000000 1.000000 0.875000 0.500000
0.016000 0.962000 -0.000000 1.000000 -0.000000 0.000000 0.410714 0.250000
0.016000 0.962000 0.500000 1.000000 -0.000000 0.000000 0.589286 0.250000
0.016000 0.018000 0.500000 1.000000 -0.000000 0.000000 0.589286 0.000000
0.016000 0.018000 -0.000000 1.000000 -0.000000 0.000000 0.410714 0.000000
0.016000 0.018000 -0.000000 0.000000 1.000000 0.000000 0.410714 1.000000
0.016000 0.018000 0.500000 0.000000 1.000000 0.000000 0.589286 1.000000
0.944000 0.018000 0.500000 0.000000 1.000000 0.000000 0.589286 0.750000
0.944000 0.018000 -0.000000 0.000000 1.000000 0.000000 0.410714 0.750000
0.016000 0.018000 -0.000000 0.000000 0.000000 -1.000000 0.150000 0.725000
-0.100000 -0.100000 -0.000000 0.000000 0.000000 -1.000000 0.125000 0.750000
4 0 1 2 3
4 4 5 6 7
4 8 9 10 11
4 12 13 14 15
6 16 17 18 19 20 21
6 22 23 24 25 26 27
4 28 29 30 31
4 32 33 34 35
6 26 25 36 23 22 37
4 38 39 40 41
4 42 43 44 45
6 21 46 19 18 47 16
